# This file uses centimeters as units for non-parametric coordinates.

# mtllib footship_selection.mtl
# g default
v -0.500000 -0.246099 0.313973
v 0.500000 -0.246099 0.313973
v -0.500000 0.112879 0.313973
v 0.500000 0.112879 0.313973
v -0.500000 0.112879 -1.135320
v 0.500000 0.112879 -1.135320
v -0.500000 -0.246099 -1.135320
v 0.500000 -0.246099 -1.135320
v -0.303091 0.112879 0.313973
v -0.140294 0.112879 0.313973
v -0.303558 -0.246099 0.313973
v -0.164145 -0.246099 0.313973
v -0.007945 0.112879 0.313973
v -0.003648 -0.246099 0.313973
v 0.206258 0.112879 0.313973
v 0.214153 -0.246099 0.313973
v 0.500000 -0.246099 0.313973
v 0.500000 0.112879 0.313973
v 0.221782 0.067900 0.798223
v 0.228842 -0.201120 0.798223
v 0.484477 -0.201120 0.798223
v 0.484477 0.067900 0.798223
v 0.246257 -0.039282 1.260567
v 0.250862 -0.197461 1.260567
v 0.421234 -0.197461 1.260567
v 0.421144 -0.039282 1.260567
v 0.272844 -0.092951 1.572166
v 0.276066 -0.143430 1.572166
v 0.395321 -0.143430 1.572166
v 0.395259 -0.092951 1.572166
v -0.519791 0.113739 0.313973
v -0.315088 0.113739 0.313973
v -0.145847 0.113739 0.313973
v -0.008260 0.113739 0.313973
v 0.214422 0.113739 0.313973
v 0.519791 0.113739 0.313973
v 0.519791 0.113739 -1.135320
v -0.519791 0.113739 -1.135320
v 0.221782 0.067900 0.817457
v 0.228842 -0.201120 0.817457
v 0.250957 -0.197461 1.241333
v 0.246257 -0.039282 1.241333
v 0.004521 -0.010024 0.686560
v 0.008331 -0.229758 0.686560
v 0.201486 -0.229758 0.686560
v 0.194485 -0.010024 0.686560
v 0.025829 -0.111734 1.088602
v 0.028808 -0.200046 1.088602
v 0.179836 -0.200046 1.088602
v 0.174362 -0.111734 1.088602
v 0.025829 -0.133074 1.231867
v 0.028808 -0.178900 1.231867
v 0.179836 -0.178900 1.231867
v 0.174362 -0.133074 1.231867
v -0.131808 -0.018364 0.696019
v -0.155659 -0.214418 0.696019
v 0.004837 -0.214418 0.696019
v 0.000540 -0.018364 0.696019
v -0.119202 -0.045797 0.975761
v -0.138118 -0.189146 0.975761
v -0.010826 -0.189146 0.975761
v -0.014234 -0.045797 0.975761
v -0.119202 -0.079131 1.149268
v -0.138118 -0.158555 1.149268
v -0.010826 -0.158555 1.149268
v -0.014234 -0.079131 1.149268
v -0.284594 -0.047193 0.716512
v -0.161672 -0.047193 0.716512
v -0.284947 -0.200782 0.716512
v -0.179681 -0.200782 0.716512
v -0.284594 -0.078552 0.964254
v -0.161672 -0.078552 0.964254
v -0.284947 -0.167287 0.964254
v -0.179681 -0.167287 0.964254
v -0.270877 -0.090608 1.084836
v -0.177370 -0.090608 1.084836
v -0.271145 -0.154139 1.084836
v -0.191070 -0.154139 1.084836
v -0.451623 -0.212217 0.559300
v -0.328194 -0.212217 0.559300
v -0.327901 -0.064969 0.559300
v -0.451623 -0.064969 0.559300
v -0.422276 -0.179179 0.751719
v -0.309110 -0.179179 0.751719
v -0.308841 -0.097971 0.751719
v -0.422276 -0.097971 0.751719
v -0.388658 -0.171368 0.880097
v -0.296996 -0.171368 0.880097
v -0.296778 -0.105773 0.880097
v -0.388658 -0.105773 0.880097
v 0.246257 -0.049568 1.258795
v 0.421144 -0.049568 1.258795
v 0.272844 -0.103237 1.570394
v 0.395259 -0.103237 1.570394
v 0.246157 -0.046642 1.259299
v 0.421144 -0.046642 1.259299
v 0.272773 -0.100312 1.570897
v 0.395259 -0.100312 1.570897
v 0.294402 -0.040318 1.277283
v 0.430345 -0.040318 1.277283
v 0.315069 -0.082591 1.522718
v 0.410224 -0.082591 1.522718
v 0.500000 -0.146099 -1.035320
v 0.500000 -0.146099 0.213973
v 0.500000 0.012879 -0.960285
v 0.500000 0.012879 0.138938
v 0.673983 -0.135958 -0.955043
v 0.673983 -0.135958 0.109614
v 0.673983 0.004934 -0.889652
v 0.673983 0.004934 0.047115
v 1.033691 -0.222202 -0.894951
v 1.033691 -0.222202 -0.161415
v 1.051333 -0.122188 -0.894951
v 1.051333 -0.122188 -0.161415
v 1.224317 -0.180364 -1.232980
v 1.224317 -0.180364 -0.654749
v 1.206675 -0.164027 -1.232980
v 1.206675 -0.164027 -0.654749
v -1.224317 -0.180364 -0.654749
v -1.224317 -0.180364 -1.232980
v -1.211892 -0.164027 -1.232980
v -1.211892 -0.164027 -0.654749
v -0.500000 -0.146099 0.213973
v -0.500000 -0.146099 -1.035320
v -0.673983 -0.135958 -0.955043
v -0.673983 -0.135958 0.109614
v -0.500000 0.012879 -0.921415
v -0.673983 0.004934 -0.855777
v -0.500000 0.012879 0.100068
v -0.673983 0.004934 0.014739
v -1.033691 -0.222202 -0.894951
v -1.033691 -0.222202 -0.161415
v -1.046116 -0.122188 -0.894951
v -1.046116 -0.122188 -0.161415
v -0.119791 0.113739 -0.086027
v -0.315088 0.113739 -0.086027
v -0.145847 0.113739 -0.086027
v -0.008260 0.113739 -0.086027
v 0.214422 0.113739 -0.086027
v 0.119791 0.113739 -0.086027
v 0.119791 0.113739 -0.735320
v -0.119791 0.113739 -0.735320
v -0.119791 0.242456 -0.719417
v -0.315088 0.242456 -0.719417
v -0.145847 0.242456 -0.719417
v -0.008260 0.242456 -0.719417
v 0.214422 0.242456 -0.719417
v 0.119791 0.242456 -0.719417
v 0.119791 0.242456 -0.917601
v -0.119791 0.242456 -0.917601
v -0.018500 0.113739 -0.086027
v 0.119087 0.113739 -0.086027
v 0.119087 0.242456 -0.719417
v -0.018500 0.242456 -0.719417
v -0.008260 0.117381 -0.085287
v -0.008260 0.246099 -0.718677
v 0.119087 0.246099 -0.718677
v 0.119087 0.117381 -0.085287
v 0.146128 -0.118696 -1.109205
v 0.125314 -0.160905 -1.105881
v 0.092895 -0.194396 -1.103243
v 0.052045 -0.215898 -1.101550
v 0.006763 -0.223307 -1.100967
v -0.038520 -0.215898 -1.101550
v -0.079370 -0.194396 -1.103243
v -0.111789 -0.160905 -1.105882
v -0.132602 -0.118696 -1.109205
v -0.139775 -0.071910 -1.112886
v -0.132602 -0.025125 -1.116571
v -0.111789 0.017080 -1.119896
v -0.079370 0.050573 -1.122531
v -0.038520 0.072077 -1.124223
v 0.006763 0.079487 -1.124807
v 0.052045 0.072077 -1.124223
v 0.092895 0.050573 -1.122531
v 0.125314 0.017080 -1.119896
v 0.146127 -0.025125 -1.116571
v 0.153300 -0.071910 -1.112886
v 0.006763 -0.108075 -1.572166
v 0.059013 -0.052913 -1.372831
v 0.068623 -0.071255 -1.369938
v 0.043477 -0.069315 -1.432101
v 0.051235 -0.081605 -1.426783
v 0.250503 0.064925 -1.474767
v 0.251972 0.061916 -1.474568
v 0.249314 0.059264 -1.484524
v 0.248129 0.061225 -1.485240
v -0.237900 0.064925 -1.474767
v -0.239369 0.061916 -1.474568
v -0.236711 0.059264 -1.484524
v -0.235526 0.061225 -1.485240
v -0.046410 -0.066610 -1.372831
v 0.046039 -0.066610 -1.422326
v 0.066190 -0.066610 -1.370670
v 0.075019 -0.066610 -1.373587
v 0.072320 -0.066610 -1.432930
v 0.047718 -0.066610 -1.433202
v 0.250503 -0.198146 -1.474767
v 0.251972 -0.195136 -1.474568
v 0.249314 -0.192485 -1.484524
v 0.248129 -0.194445 -1.485240
v 0.059013 -0.080307 -1.372831
v -0.053586 -0.066610 -1.370670
v -0.062416 -0.066610 -1.373587
v -0.059717 -0.066610 -1.432930
v -0.035115 -0.066610 -1.433202
v -0.033436 -0.066610 -1.422326
v -0.237900 -0.198146 -1.474767
v -0.239369 -0.195136 -1.474568
v -0.236711 -0.192485 -1.484524
v -0.235526 -0.194445 -1.485240
vt 0.375000 0.000000
vt 0.625000 0.000000
vt 0.375000 0.250000
vt 0.625000 0.250000
vt 0.375000 0.500000
vt 0.625000 0.500000
vt 0.375000 0.750000
vt 0.625000 0.750000
vt 0.375000 1.000000
vt 0.625000 1.000000
vt 0.875000 0.000000
vt 0.875000 0.250000
vt 0.125000 0.000000
vt 0.125000 0.250000
vt 0.424227 0.250000
vt 0.464926 0.250000
vt 0.424111 0.000000
vt 0.424111 1.000000
vt 0.458964 0.000000
vt 0.458964 1.000000
vt 0.498014 0.250000
vt 0.499088 0.000000
vt 0.499088 1.000000
vt 0.551565 0.250000
vt 0.553538 0.000000
vt 0.553538 1.000000
vt 0.625000 0.000000
vt 0.625000 0.250000
vt 0.551565 0.250000
vt 0.553538 0.000000
vt 0.625000 0.000000
vt 0.625000 0.250000
vt 0.551565 0.250000
vt 0.553538 0.000000
vt 0.625000 0.000000
vt 0.625000 0.250000
vt 0.551565 0.250000
vt 0.553538 0.000000
vt 0.625000 0.000000
vt 0.625000 0.250000
vt 0.375000 0.250000
vt 0.424227 0.250000
vt 0.464926 0.250000
vt 0.498014 0.250000
vt 0.551565 0.250000
vt 0.625000 0.250000
vt 0.625000 0.500000
vt 0.375000 0.500000
vt 0.551565 0.250000
vt 0.553538 0.000000
vt 0.553538 0.000000
vt 0.551565 0.250000
vt 0.498014 0.250000
vt 0.499088 0.000000
vt 0.553538 0.000000
vt 0.551565 0.250000
vt 0.498014 0.250000
vt 0.499088 0.000000
vt 0.553538 0.000000
vt 0.551565 0.250000
vt 0.498014 0.250000
vt 0.499088 0.000000
vt 0.553538 0.000000
vt 0.551565 0.250000
vt 0.464926 0.250000
vt 0.458964 0.000000
vt 0.499088 0.000000
vt 0.498014 0.250000
vt 0.464926 0.250000
vt 0.458964 0.000000
vt 0.499088 0.000000
vt 0.498014 0.250000
vt 0.464926 0.250000
vt 0.458964 0.000000
vt 0.499088 0.000000
vt 0.498014 0.250000
vt 0.464926 0.250000
vt 0.424227 0.250000
vt 0.424111 0.000000
vt 0.458964 0.000000
vt 0.464926 0.250000
vt 0.424227 0.250000
vt 0.424111 0.000000
vt 0.458964 0.000000
vt 0.464926 0.250000
vt 0.424227 0.250000
vt 0.424111 0.000000
vt 0.458964 0.000000
vt 0.375000 0.000000
vt 0.424111 0.000000
vt 0.424227 0.250000
vt 0.375000 0.250000
vt 0.375000 0.000000
vt 0.424111 0.000000
vt 0.424227 0.250000
vt 0.375000 0.250000
vt 0.375000 0.000000
vt 0.424111 0.000000
vt 0.424227 0.250000
vt 0.375000 0.250000
vt 0.625000 0.250000
vt 0.551565 0.250000
vt 0.551565 0.250000
vt 0.625000 0.250000
vt 0.625000 0.250000
vt 0.551565 0.250000
vt 0.551565 0.250000
vt 0.625000 0.250000
vt 0.625000 0.250000
vt 0.551565 0.250000
vt 0.551565 0.250000
vt 0.625000 0.250000
vt 0.625000 0.000000
vt 0.875000 0.000000
vt 0.875000 0.250000
vt 0.625000 0.250000
vt 0.625000 0.000000
vt 0.875000 0.000000
vt 0.875000 0.250000
vt 0.625000 0.250000
vt 0.625000 0.000000
vt 0.875000 0.000000
vt 0.875000 0.250000
vt 0.625000 0.250000
vt 0.625000 0.000000
vt 0.875000 0.000000
vt 0.875000 0.250000
vt 0.625000 0.250000
vt 0.625000 0.000000
vt 0.875000 0.000000
vt 0.875000 0.250000
vt 0.625000 0.250000
vt 0.625000 0.000000
vt 0.875000 0.000000
vt 0.875000 0.000000
vt 0.625000 0.000000
vt 0.875000 0.250000
vt 0.875000 0.250000
vt 0.625000 0.250000
vt 0.625000 0.250000
vt 0.875000 0.000000
vt 0.625000 0.000000
vt 0.875000 0.250000
vt 0.625000 0.250000
vt 0.375000 0.250000
vt 0.424227 0.250000
vt 0.464926 0.250000
vt 0.498014 0.250000
vt 0.551565 0.250000
vt 0.625000 0.250000
vt 0.625000 0.500000
vt 0.375000 0.500000
vt 0.375000 0.250000
vt 0.424227 0.250000
vt 0.464926 0.250000
vt 0.498014 0.250000
vt 0.551565 0.250000
vt 0.625000 0.250000
vt 0.625000 0.500000
vt 0.375000 0.500000
vt 0.464926 0.250000
vt 0.498014 0.250000
vt 0.498014 0.250000
vt 0.464926 0.250000
vt 0.498014 0.250000
vt 0.498014 0.250000
vt 0.498014 0.250000
vt 0.498014 0.250000
vt 0.737764 0.172746
vt 0.750000 0.250000
vt 0.737764 0.327254
vt 0.702254 0.396946
vt 0.646946 0.452254
vt 0.577254 0.487764
vt 0.500000 0.500000
vt 0.422746 0.487764
vt 0.353054 0.452254
vt 0.297746 0.396946
vt 0.262236 0.327254
vt 0.250000 0.250000
vt 0.262236 0.172746
vt 0.297746 0.103054
vt 0.353054 0.047746
vt 0.422746 0.012236
vt 0.500000 -0.000000
vt 0.577254 0.012236
vt 0.646946 0.047746
vt 0.702254 0.103054
vt 0.250000 0.500000
vt 0.275000 0.500000
vt 0.500000 1.000000
vt 0.300000 0.500000
vt 0.325000 0.500000
vt 0.350000 0.500000
vt 0.375000 0.500000
vt 0.400000 0.500000
vt 0.425000 0.500000
vt 0.450000 0.500000
vt 0.475000 0.500000
vt 0.500000 0.500000
vt 0.525000 0.500000
vt 0.550000 0.500000
vt 0.575000 0.500000
vt 0.600000 0.500000
vt 0.625000 0.500000
vt 0.650000 0.500000
vt 0.675000 0.500000
vt 0.577130 0.779628
vt 0.557979 0.834347
vt 0.554196 0.845153
vt 0.563821 0.840448
vt 0.700000 0.500000
vt 0.725000 0.500000
vt 0.588775 0.778062
vt 0.750000 0.500000
vt 0.585826 0.778458
vt 0.577130 0.779628
vt 0.588775 0.778062
vt 0.563821 0.840448
vt 0.554196 0.845153
vt 0.588775 0.778062
vt 0.577130 0.779628
vt 0.554196 0.845153
vt 0.563821 0.840448
vt 0.588775 0.778062
vt 0.577130 0.779628
vt 0.588775 0.778062
vt 0.585826 0.778458
vt 0.563821 0.840448
vt 0.554196 0.845153
vt 0.577130 0.779628
vt 0.554196 0.845153
vt 0.563821 0.840448
vt 0.588775 0.778062
vt 0.577130 0.779628
vt 0.588775 0.778062
vt 0.585826 0.778458
vt 0.563821 0.840448
vt 0.554196 0.845153
vt 0.557979 0.834347
vt 0.563821 0.840448
vt 0.554196 0.845153
vt 0.557979 0.834347
vt 0.577130 0.779628
vt 0.585826 0.778458
vt 0.588775 0.778062
vt 0.588775 0.778062
vt 0.577130 0.779628
vt 0.563821 0.840448
vt 0.563821 0.840448
vt 0.554196 0.845153
vt 0.554196 0.845153
vt 0.557979 0.834347
vn 0.000000 0.000000 1.000000
vn 0.000000 0.000000 1.000000
vn 0.000000 0.000000 1.000000
vn 0.000000 0.000000 1.000000
vn 0.000000 1.000000 0.000000
vn 0.000000 0.000000 0.000000
vn 0.000000 1.000000 0.000000
vn 0.000000 1.000000 0.000000
vn 0.000000 0.000000 0.000000
vn 0.000000 1.000000 0.000000
vn 0.000000 1.000000 0.000000
vn 0.000000 1.000000 0.000000
vn 0.000000 0.000000 -1.000000
vn 0.000000 0.000000 -1.000000
vn 0.000000 0.000000 -1.000000
vn 0.000000 0.000000 -1.000000
vn 0.000000 -1.000000 -0.000000
vn 0.000000 -1.000000 -0.000000
vn 0.000000 -1.000000 -0.000000
vn 0.000000 -0.999999 0.001105
vn 0.000000 -0.999996 0.002782
vn 0.000000 -0.999994 0.003466
vn 0.000000 -0.999994 0.003506
vn 0.000000 -0.999995 0.003204
vn 0.931257 0.277132 0.236556
vn 0.679437 0.733734 0.000000
vn 0.679437 0.733734 0.000000
vn 0.940396 0.221933 0.257683
vn -1.000000 0.000000 0.000000
vn -0.999812 0.000000 0.019397
vn -0.999912 0.000000 0.013308
vn -1.000000 0.000000 0.000000
vn 0.000000 0.000000 1.000000
vn 0.000000 0.000000 1.000000
vn 0.000000 0.000000 1.000000
vn 0.000000 0.000000 1.000000
vn 0.000000 0.000000 1.000000
vn 0.000000 0.000000 1.000000
vn 0.000000 0.000000 1.000000
vn 0.000000 0.000000 1.000000
vn 0.000000 0.000000 1.000000
vn 0.000000 0.000000 1.000000
vn 0.000000 0.000000 1.000000
vn 0.000000 0.000000 1.000000
vn 0.000000 0.000000 1.000000
vn 0.000000 0.000000 1.000000
vn 0.000000 0.000000 1.000000
vn 0.000000 0.000000 1.000000
vn 0.000000 0.000000 0.000000
vn 0.000000 0.000000 0.000000
vn 0.000000 0.000000 0.000000
vn 0.000000 0.000000 0.000000
vn -0.999231 -0.023795 0.031171
vn -0.999231 -0.023795 0.031171
vn -0.999231 -0.023795 0.031171
vn -0.999231 -0.023795 0.031171
vn 0.000000 -0.995714 0.092485
vn 0.000000 -0.995714 0.092485
vn 0.000000 -0.995714 0.092485
vn 0.000000 -0.995714 0.092485
vn 0.999487 0.000000 0.032040
vn 0.999487 0.000000 0.032040
vn 0.999487 0.000000 0.032040
vn 0.999487 0.000000 0.032040
vn 0.000000 0.995714 0.092485
vn 0.000000 0.995714 0.092485
vn 0.000000 0.995714 0.092485
vn 0.000000 0.995714 0.092485
vn -0.998294 -0.027482 0.051508
vn -0.998294 -0.027482 0.051508
vn -0.998294 -0.027482 0.051508
vn -0.998294 -0.027482 0.051508
vn 0.000000 -0.999969 0.007914
vn 0.000000 -0.999969 0.007914
vn 0.000000 -0.998481 0.055092
vn 0.000000 -0.998377 0.056949
vn 0.990758 0.000209 0.135642
vn 0.990758 0.000209 0.135642
vn 0.992165 0.000315 0.124934
vn 0.992308 0.000326 0.123796
vn 0.000000 0.974166 0.225835
vn 0.000000 0.974166 0.225835
vn 0.000000 0.974166 0.225835
vn 0.000000 0.974166 0.225835
vn -0.995867 -0.037358 0.082784
vn -0.995867 -0.037358 0.082784
vn -0.995867 -0.037358 0.082784
vn -0.995867 -0.037358 0.082784
vn 0.000000 -0.985297 0.170852
vn 0.000000 -0.985297 0.170852
vn 0.996563 0.000728 0.082831
vn 0.996563 0.000728 0.082831
vn 0.000000 0.990870 0.134821
vn -0.068016 0.990043 0.123242
vn -0.067606 0.977563 0.199498
vn 0.000000 0.981167 0.193162
vn 0.000000 0.000000 1.000000
vn 0.000000 0.000000 1.000000
vn 0.000000 0.000000 1.000000
vn 0.000000 0.000000 1.000000
vn 0.000000 0.000000 1.000000
vn 0.000000 0.000000 1.000000
vn 0.000000 0.000000 1.000000
vn 0.000000 0.000000 1.000000
vn 0.000000 0.000000 1.000000
vn 0.000000 0.000000 1.000000
vn 0.000000 0.000000 1.000000
vn 0.000000 0.000000 1.000000
vn 0.043413 -0.999057 0.000000
vn 0.043413 -0.999057 0.000000
vn 0.043413 -0.999057 0.000000
vn 0.043413 -0.999057 0.000000
vn 0.000000 0.000000 -1.000000
vn 0.000000 0.000000 -1.000000
vn -0.043413 -0.999057 0.000000
vn -0.043413 -0.999057 0.000000
vn -0.043413 -0.999057 0.000000
vn -0.043413 -0.999057 0.000000
vn -0.999656 -0.026234 0.000000
vn -0.999656 -0.026234 0.000000
vn -0.999656 -0.026234 0.000000
vn -0.999656 -0.026234 0.000000
vn 0.000000 0.999966 -0.008258
vn 0.000000 0.999966 -0.008258
vn 0.000000 0.999966 -0.008258
vn 0.000000 0.999966 -0.008258
vn -0.999565 -0.029400 -0.002471
vn -0.999565 -0.029400 -0.002471
vn -0.999565 -0.029400 -0.002471
vn -0.999565 -0.029400 -0.002471
vn 0.000000 1.000000 0.000000
vn 0.000000 1.000000 0.000000
vn 0.000000 1.000000 0.000000
vn 0.000000 1.000000 0.000000
vn -0.999428 -0.014001 0.030784
vn -0.999428 -0.014001 0.030784
vn -0.999158 -0.016789 0.037443
vn -0.999209 -0.016300 0.036275
vn 0.000000 -0.998340 0.057604
vn 0.000000 -0.998338 0.057627
vn 0.999005 0.025714 0.036443
vn 0.999005 0.025714 0.036443
vn 0.998673 0.029940 0.041910
vn 0.998598 0.030819 0.043048
vn 0.000000 0.949667 0.313262
vn 0.000000 0.949667 0.313262
vn 0.000000 0.959296 0.282404
vn 0.000000 0.959310 0.282354
vn -0.998727 -0.024665 0.044005
vn -0.998710 -0.024433 0.044523
vn 0.000000 -0.995884 0.090640
vn 0.000000 -0.995882 0.090664
vn 0.997769 0.044859 0.049443
vn 0.997778 0.045262 0.048901
vn 0.000000 0.974810 0.223039
vn 0.000000 0.974817 0.223009
vn -0.999015 -0.044381 -0.000030
vn -0.999015 -0.044381 -0.000030
vn 0.000000 -0.989281 0.146024
vn 0.000000 -0.989281 0.146024
vn 0.996686 0.081350 0.000055
vn 0.996686 0.081350 0.000055
vn 0.000000 0.989087 0.147332
vn 0.000000 0.989087 0.147332
vn -0.995776 0.085582 0.033269
vn -0.995776 0.085582 0.033269
vn -0.994530 0.096831 0.039169
vn -0.994651 0.095800 0.038628
vn 0.000000 -0.996337 0.085510
vn 0.000000 -0.996342 0.085454
vn 0.999676 0.015478 -0.020187
vn 0.999676 0.015478 -0.020187
vn 0.999849 0.017340 -0.000951
vn 0.999845 0.017546 0.001175
vn 0.000000 0.945751 0.324891
vn 0.000000 0.945751 0.324891
vn 0.000000 0.970435 0.241364
vn 0.000000 0.970722 0.240207
vn -0.989913 0.135772 0.040471
vn -0.989918 0.135714 0.040541
vn 0.000000 -0.992863 0.119258
vn 0.000000 -0.992873 0.119180
vn 0.998864 0.024664 0.040763
vn 0.998870 0.024685 0.040619
vn 0.000000 0.991556 0.129680
vn 0.000000 0.991569 0.129581
vn -0.985883 0.167431 0.001324
vn -0.985883 0.167431 0.001324
vn 0.000000 -0.984811 0.173630
vn 0.000000 -0.984811 0.173630
vn 0.999532 0.030581 0.000242
vn 0.999532 0.030581 0.000242
vn 0.000000 0.982041 0.188668
vn 0.000000 0.982041 0.188668
vn 0.000000 0.929226 0.369513
vn 0.000000 0.929226 0.369513
vn 0.000000 0.956382 0.292120
vn 0.000000 0.956315 0.292338
vn -0.998928 0.001597 0.046271
vn -0.998928 0.001597 0.046271
vn -0.999311 0.001859 0.037078
vn -0.999273 0.001830 0.038071
vn 0.000000 -0.992843 0.119426
vn 0.000000 -0.992846 0.119403
vn 0.996103 -0.081349 0.034078
vn 0.996103 -0.081349 0.034078
vn 0.995260 -0.093096 0.028126
vn 0.995142 -0.094569 0.027379
vn 0.000000 0.992993 0.118176
vn 0.000000 0.992986 0.118235
vn -0.999714 0.003152 0.023691
vn -0.999709 0.003154 0.023910
vn 0.000000 -0.991947 0.126654
vn 0.000000 -0.991938 0.126724
vn 0.987011 -0.158899 0.023670
vn 0.986974 -0.159079 0.024021
vn 0.000000 0.995039 0.099486
vn 0.000000 0.995039 0.099486
vn -0.993546 0.004051 0.113354
vn -0.993546 0.004051 0.113354
vn 0.000000 -0.994108 0.108397
vn 0.000000 -0.994108 0.108397
vn 0.973035 -0.202628 0.110204
vn 0.973035 -0.202628 0.110204
vn 0.000000 -0.988873 0.148760
vn 0.000000 -0.989108 0.147191
vn 0.995003 -0.001495 0.099834
vn 0.995003 -0.001495 0.099834
vn 0.997984 -0.001676 0.063441
vn 0.998466 -0.001716 0.055344
vn 0.000000 0.809633 0.586937
vn 0.000000 0.809633 0.586937
vn 0.000000 0.877613 0.479370
vn 0.000000 0.887020 0.461731
vn -0.982940 0.000000 0.183928
vn -0.982616 0.000000 0.185649
vn 0.000000 -0.991916 0.126893
vn 0.000000 -0.990646 0.136454
vn 0.995251 -0.002681 -0.097308
vn 0.995251 -0.002681 -0.097309
vn 0.000000 0.990667 0.136304
vn 0.000000 0.991934 0.126759
vn -0.983802 0.000000 0.179258
vn -0.983802 0.000000 0.179262
vn 0.000000 -0.998154 0.060743
vn 0.000000 -0.998154 0.060743
vn 0.995591 -0.003303 -0.093742
vn 0.995591 -0.003303 -0.093742
vn 0.000000 0.998159 0.060659
vn 0.000000 0.998159 0.060659
vn -0.967383 0.000000 0.253319
vn -0.967383 0.000000 0.253319
vn 0.000000 -0.169774 0.985483
vn 0.000000 -0.169774 0.985483
vn 0.000000 -0.169774 0.985483
vn 0.000000 -0.169774 0.985483
vn 0.996483 0.014226 -0.082575
vn 0.996483 0.014226 -0.082575
vn 0.996483 0.014226 -0.082575
vn 0.996483 0.014226 -0.082575
vn 0.000000 0.169774 -0.985483
vn 0.000000 0.169774 -0.985483
vn 0.000000 0.169774 -0.985483
vn 0.000000 0.169774 -0.985483
vn -0.996666 0.013852 -0.080408
vn -0.996666 0.013852 -0.080408
vn -0.996666 0.013852 -0.080408
vn -0.996666 0.013852 -0.080408
vn 0.000000 0.169640 -0.985506
vn 0.000000 0.169640 -0.985506
vn 0.000000 0.169640 -0.985506
vn 0.000000 0.169640 -0.985506
vn -0.996067 -0.042568 0.077703
vn -0.996067 -0.042568 0.077703
vn -0.996067 -0.042568 0.077703
vn -0.996067 -0.042568 0.077703
vn 0.000000 -0.169641 0.985506
vn 0.000000 -0.169641 0.985506
vn 0.000000 -0.169641 0.985506
vn 0.000000 -0.169641 0.985506
vn 0.996666 -0.013837 0.080414
vn 0.996666 -0.013837 0.080414
vn 0.996666 -0.013837 0.080414
vn 0.996665 -0.013837 0.080414
vn 0.000000 0.943366 -0.331754
vn 0.000000 0.943366 -0.331754
vn -0.195045 0.963659 0.182535
vn -0.134296 0.962514 0.235653
vn 0.000000 0.938533 0.345190
vn 0.654278 -0.752469 -0.075567
vn 0.654278 -0.752469 -0.075567
vn 0.654278 -0.752469 -0.075567
vn 0.654278 -0.752469 -0.075567
vn 1.000000 0.000000 0.000000
vn 1.000000 0.000000 0.000000
vn 1.000000 0.000000 0.000000
vn 1.000000 0.000000 0.000000
vn 1.000000 0.000000 0.000000
vn 1.000000 0.000000 0.000000
vn 1.000000 0.000000 0.000000
vn 1.000000 0.000000 0.000000
vn 0.058191 -0.998306 0.000000
vn 0.058191 -0.998306 0.000000
vn -0.099410 -0.995047 0.000000
vn -0.065775 -0.997835 0.000000
vn 0.363411 0.395098 -0.843700
vn 0.363411 0.395098 -0.843700
vn 0.239804 0.314856 -0.918346
vn 0.235232 0.311807 -0.920567
vn 0.045617 0.998959 0.000000
vn 0.045617 0.998959 0.000000
vn 0.183736 0.982976 0.000000
vn 0.212604 0.977139 0.000000
vn 0.454212 0.371404 0.809785
vn 0.454212 0.371404 0.809785
vn 0.526799 0.252290 0.811685
vn 0.533567 0.239974 0.810999
vn -0.070198 -0.997533 0.000000
vn -0.206723 -0.978400 0.000000
vn 0.143412 0.249459 -0.957707
vn 0.143412 0.249459 -0.957707
vn 0.316530 0.948583 0.000000
vn 0.298393 0.954443 0.000000
vn 0.571183 0.166682 0.803721
vn 0.571183 0.166682 0.803721
vn 0.214377 -0.976751 0.000000
vn 0.214377 -0.976751 0.000000
vn -0.890207 0.000000 -0.455557
vn -0.890207 0.000000 -0.455557
vn -0.890207 0.000000 -0.455557
vn -0.890207 0.000000 -0.455557
vn 0.260064 0.965591 0.000000
vn 0.260064 0.965591 0.000000
vn 0.943669 0.000000 0.330892
vn 0.943669 0.000000 0.330892
vn -0.948556 0.193028 0.250964
vn -0.950272 0.159241 0.267630
vn -0.795931 0.605388 0.000000
vn -0.795931 0.605388 0.000000
vn -0.058191 -0.998305 0.000000
vn 0.065775 -0.997835 0.000000
vn 0.099410 -0.995047 0.000000
vn -0.058191 -0.998305 0.000000
vn -0.320304 0.548872 -0.772104
vn -0.217954 0.453814 -0.864031
vn -0.218393 0.454236 -0.863698
vn -0.320304 0.548872 -0.772104
vn -0.045617 0.998959 0.000000
vn -0.220785 0.975323 0.000000
vn -0.192091 0.981377 0.000000
vn -0.045617 0.998959 0.000000
vn -0.405631 0.522269 0.750133
vn -0.510458 0.366670 0.777808
vn -0.494427 0.393256 0.775172
vn -0.405631 0.522269 0.750133
vn 0.206723 -0.978400 0.000000
vn 0.070198 -0.997533 0.000000
vn -0.134588 0.371570 -0.918598
vn -0.134588 0.371570 -0.918598
vn -0.292669 0.956214 0.000000
vn -0.318905 0.947787 0.000000
vn -0.558609 0.278829 0.781160
vn -0.558609 0.278829 0.781160
vn -0.214377 -0.976751 0.000000
vn -0.214377 -0.976751 0.000000
vn 0.884605 0.000000 -0.466342
vn 0.884605 0.000000 -0.466342
vn 0.884605 0.000000 -0.466342
vn 0.884605 0.000000 -0.466342
vn -0.244708 0.969597 0.000000
vn -0.244708 0.969597 0.000000
vn -0.940522 0.000000 0.339733
vn -0.940522 0.000000 0.339733
vn 0.000000 1.000000 0.000000
vn 0.000000 0.000000 0.000000
vn 0.000000 1.000000 0.000000
vn 0.000000 1.000000 0.000000
vn 0.000000 1.000000 0.000000
vn 0.000000 1.000000 0.000000
vn 0.000000 1.000000 0.000000
vn 0.000000 1.000000 0.000000
vn 0.000000 1.000000 0.000000
vn 0.000000 1.000000 0.000000
vn 0.000000 0.000000 0.000000
vn 0.000000 1.000000 0.000000
vn 0.000000 1.000000 0.000000
vn 0.000000 1.000000 0.000000
vn 0.000000 1.000000 0.000000
vn 0.000000 1.000000 0.000000
vn 0.000000 0.979969 0.199149
vn 0.000000 0.979969 0.199149
vn 0.000000 0.979969 0.199149
vn 0.000000 0.979969 0.199149
vn 1.000000 0.000000 0.000000
vn 1.000000 0.000000 0.000000
vn 1.000000 0.000000 0.000000
vn 1.000000 0.000000 0.000000
vn 0.000000 -0.816867 -0.576827
vn 0.000000 -0.816867 -0.576827
vn 0.000000 -0.816867 -0.576827
vn 0.000000 -0.816867 -0.576827
vn -1.000000 0.000000 0.000000
vn -1.000000 0.000000 0.000000
vn -1.000000 0.000000 0.000000
vn -1.000000 0.000000 0.000000
vn 0.000000 0.000000 0.000000
vn 0.000000 0.000000 0.000000
vn 0.000000 0.000000 0.000000
vn 0.000000 0.000000 0.000000
vn 0.000000 -0.979969 -0.199149
vn 0.000000 -0.979969 -0.199149
vn 0.000000 -0.979969 -0.199149
vn 0.000000 -0.979969 -0.199149
vn 0.000000 0.000000 0.000000
vn 0.000000 0.000000 0.000000
vn 0.000000 0.000000 0.000000
vn 0.000000 0.000000 0.000000
vn 0.000000 0.979969 0.199149
vn 0.000000 0.979969 0.199149
vn 1.000000 0.000000 0.000000
vn 1.000000 0.000000 0.000000
vn 1.000000 0.000000 0.000000
vn 1.000000 0.000000 0.000000
vn 0.000000 -0.199052 0.979989
vn 0.000000 -0.199052 0.979989
vn 0.000000 -0.199052 0.979989
vn 0.000000 -0.199052 0.979989
vn -1.000000 -0.000001 0.000000
vn -1.000000 -0.000001 0.000000
vn -1.000000 -0.000001 0.000000
vn -1.000000 -0.000001 0.000000
vn 0.000000 0.199053 -0.979989
vn 0.000000 0.199053 -0.979989
vn 0.000000 0.199053 -0.979989
vn 0.000000 0.199053 -0.979989
vn 0.000000 0.078492 0.996915
vn 0.000000 0.078492 0.996915
vn 0.000000 0.078492 0.996915
vn 0.000000 0.078492 0.996915
vn 0.000000 0.078492 0.996915
vn 0.000000 0.078492 0.996915
vn 0.000000 0.078492 0.996915
vn 0.000000 0.078492 0.996915
vn 0.000000 0.078492 0.996915
vn 0.000000 0.078492 0.996915
vn 0.000000 0.078492 0.996915
vn 0.000000 0.078492 0.996915
vn 0.000000 0.078492 0.996915
vn 0.000000 0.078492 0.996915
vn 0.000000 0.078492 0.996915
vn 0.000000 0.078492 0.996915
vn 0.000000 0.078492 0.996915
vn 0.000000 0.078492 0.996915
vn 0.000000 0.078492 0.996915
vn 0.000000 0.078492 0.996915
vn 0.908866 -0.308521 -0.280674
vn 0.778867 -0.569588 -0.262558
vn -0.133921 -0.143257 -0.980583
vn 0.571129 -0.782216 -0.248899
vn 0.302550 -0.922313 -0.240422
vn 0.000000 -0.971375 -0.237551
vn -0.302551 -0.922312 -0.240423
vn -0.571124 -0.782219 -0.248899
vn -0.778866 -0.569589 -0.262558
vn -0.908867 -0.308518 -0.280674
vn -0.952956 -0.023786 -0.302175
vn -0.908864 0.260799 -0.325501
vn -0.778860 0.521485 -0.348469
vn -0.571133 0.733619 -0.368254
vn -0.302575 0.873309 -0.381811
vn 0.000000 0.922224 -0.386655
vn 0.302576 0.873309 -0.381810
vn 0.571137 0.733616 -0.368253
vn 0.769430 0.534555 -0.349612
vn 0.740838 0.571801 -0.352425
vn 0.685406 0.635474 -0.355515
vn 0.696224 0.623825 -0.355127
vn 0.941180 0.130542 -0.311671
vn 0.913540 0.245671 -0.324177
vn 0.952956 -0.023786 -0.302175
vn 0.924995 0.204587 -0.320201
vn 0.855609 0.395647 -0.333761
vn 0.855620 0.395622 -0.333763
vn 0.855620 0.395622 -0.333763
vn 0.855620 0.395622 -0.333763
vn 0.855620 0.395622 -0.333763
vn 0.305643 0.289891 0.906943
vn 0.305643 0.289891 0.906943
vn 0.305643 0.289891 0.906943
vn 0.305643 0.289891 0.906943
vn 0.305643 0.289891 0.906943
vn -0.855637 0.395600 -0.333746
vn -0.855637 0.395600 -0.333746
vn -0.855637 0.395600 -0.333746
vn -0.855637 0.395600 -0.333746
vn -0.113575 0.514364 0.850018
vn -0.113575 0.514364 0.850018
vn -0.113575 0.514364 0.850018
vn -0.113575 0.514364 0.850018
vn -0.113575 0.514364 0.850018
vn 0.579700 -0.814716 -0.013639
vn 0.579700 -0.814716 -0.013639
vn 0.579700 -0.814716 -0.013639
vn 0.579700 -0.814716 -0.013639
vn 0.005980 -0.385766 -0.922577
vn 0.005980 -0.385767 -0.922577
vn 0.005980 -0.385767 -0.922577
vn 0.005980 -0.385767 -0.922577
vn -0.555356 0.826110 -0.095514
vn -0.555356 0.826110 -0.095514
vn -0.555356 0.826110 -0.095514
vn -0.555356 0.826110 -0.095514
vn -0.555356 0.826110 -0.095514
vn 0.855637 -0.395600 -0.333746
vn 0.855637 -0.395600 -0.333746
vn 0.855637 -0.395600 -0.333746
vn 0.855637 -0.395600 -0.333746
vn 0.305684 -0.289887 0.906931
vn 0.305684 -0.289887 0.906931
vn 0.305684 -0.289887 0.906931
vn 0.305684 -0.289887 0.906931
vn 0.305684 -0.289887 0.906931
vn 0.579705 0.814712 -0.013639
vn 0.579705 0.814712 -0.013639
vn 0.579705 0.814712 -0.013639
vn 0.579705 0.814712 -0.013639
vn 0.005950 0.385766 -0.922577
vn 0.005950 0.385766 -0.922577
vn 0.005950 0.385766 -0.922577
vn 0.005950 0.385766 -0.922577
vn -0.555361 -0.826106 -0.095513
vn -0.555361 -0.826106 -0.095513
vn -0.555361 -0.826106 -0.095513
vn -0.555361 -0.826106 -0.095513
vn -0.555361 -0.826106 -0.095513
vn -0.579700 -0.814716 -0.013639
vn -0.579700 -0.814716 -0.013639
vn -0.579700 -0.814716 -0.013639
vn -0.579700 -0.814716 -0.013639
vn -0.005950 -0.385767 -0.922577
vn -0.005950 -0.385767 -0.922577
vn -0.005950 -0.385767 -0.922577
vn -0.005950 -0.385767 -0.922577
vn 0.529013 0.846594 0.058523
vn 0.529013 0.846594 0.058523
vn 0.529013 0.846594 0.058523
vn 0.529013 0.846594 0.058523
vn 0.529013 0.846594 0.058523
vn -0.113575 -0.514364 0.850018
vn -0.113575 -0.514364 0.850018
vn -0.113575 -0.514364 0.850018
vn -0.113575 -0.514364 0.850018
vn -0.113575 -0.514364 0.850018
vn -0.579700 0.814716 -0.013639
vn -0.579700 0.814716 -0.013639
vn -0.579700 0.814716 -0.013639
vn -0.579700 0.814716 -0.013639
vn -0.005950 0.385767 -0.922577
vn -0.005950 0.385767 -0.922577
vn -0.005950 0.385767 -0.922577
vn -0.005950 0.385767 -0.922577
vn 0.529013 -0.846594 0.058523
vn 0.529013 -0.846594 0.058523
vn 0.529013 -0.846594 0.058523
vn 0.529013 -0.846594 0.058523
vn 0.529013 -0.846594 0.058523
s off
g pCube3
usemtl initialShadingGroup
f 76/85/1 75/86/2 77/87/3 78/88/4
f 143/153/5 144/154/6 145/155/7 146/156/8 147/157/9 148/158/10 149/159/11 150/160/12
s 1
f 5/5/13 6/6/14 8/8/15 7/7/16
s 2
f 7/7/17 8/8/18 2/10/19 16/26/20 14/23/21 12/20/22 11/18/23 1/9/24
s 3
f 116/125/25 115/126/26 117/127/27 118/128/28
s 4
f 7/13/29 1/1/30 3/3/31 5/14/32
s off
f 87/97/33 88/98/34 89/99/35 90/100/36
f 27/37/37 28/38/38 29/39/39 30/40/40
f 63/73/41 64/74/42 65/75/43 66/76/44
f 51/61/45 52/62/46 53/63/47 54/64/48
f 2/4/49 4/28/50 18/2/51 17/27/52
f 15/24/53 16/25/54 20/30/55 19/29/56
f 16/25/57 2/2/58 21/31/59 20/30/60
f 2/2/61 4/4/62 22/32/63 21/31/64
f 4/4/65 15/24/66 19/29/67 22/32/68
f 39/49/69 40/50/70 41/51/71 42/52/72
s 5
f 20/30/73 21/31/74 25/35/75 24/34/76
s 6
f 21/31/77 22/32/78 26/36/79 25/35/80
s off
f 22/32/81 19/29/82 23/33/83 26/36/84
f 23/33/85 24/34/86 28/38/87 27/37/88
s 5
f 24/34/76 25/35/75 29/39/89 28/38/90
s 6
f 25/35/80 26/36/79 30/40/91 29/39/92
s 7
f 100/109/93 99/110/94 101/111/95 102/112/96
s 8
f 3/3/97 9/15/98 32/42/99 31/41/100
f 9/15/98 10/16/101 33/43/102 32/42/99
f 10/16/101 13/21/103 34/44/104 33/43/102
f 13/21/103 15/24/105 35/45/106 34/44/104
f 15/24/105 4/4/107 36/46/108 35/45/106
s off
f 4/4/109 6/6/110 37/47/111 36/46/112
s 1
f 6/6/14 5/5/13 38/48/113 37/47/114
s off
f 5/5/115 3/3/116 31/41/117 38/48/118
f 19/29/119 20/30/120 40/50/121 39/49/122
f 20/30/123 24/34/124 41/51/125 40/50/126
f 24/34/127 23/33/128 42/52/129 41/51/130
f 23/33/131 19/29/132 39/49/133 42/52/134
s 9
f 13/21/135 14/22/136 44/54/137 43/53/138
s 2
f 14/22/21 16/25/20 45/55/139 44/54/140
s 10
f 16/25/141 15/24/142 46/56/143 45/55/144
s 11
f 15/24/145 13/21/146 43/53/147 46/56/148
s 9
f 43/53/138 44/54/137 48/58/149 47/57/150
s 2
f 44/54/140 45/55/139 49/59/151 48/58/152
s 10
f 45/55/144 46/56/143 50/60/153 49/59/154
s 11
f 46/56/148 43/53/147 47/57/155 50/60/156
s 9
f 47/57/150 48/58/149 52/62/157 51/61/158
s 2
f 48/58/152 49/59/151 53/63/159 52/62/160
s 10
f 49/59/154 50/60/153 54/64/161 53/63/162
s 11
f 50/60/156 47/57/155 51/61/163 54/64/164
s 12
f 10/16/165 12/19/166 56/66/167 55/65/168
s 2
f 12/19/22 14/22/21 57/67/169 56/66/170
s 13
f 14/22/171 13/21/172 58/68/173 57/67/174
s 14
f 13/21/175 10/16/176 55/65/177 58/68/178
s 12
f 55/65/168 56/66/167 60/70/179 59/69/180
s 2
f 56/66/170 57/67/169 61/71/181 60/70/182
s 13
f 57/67/174 58/68/173 62/72/183 61/71/184
s 14
f 58/68/178 55/65/177 59/69/185 62/72/186
s 12
f 59/69/180 60/70/179 64/74/187 63/73/188
s 2
f 60/70/182 61/71/181 65/75/189 64/74/190
s 13
f 61/71/184 62/72/183 66/76/191 65/75/192
s 14
f 62/72/186 59/69/185 63/73/193 66/76/194
s 15
f 10/16/195 9/15/196 67/78/197 68/77/198
s 16
f 9/15/199 11/17/200 69/79/201 67/78/202
s 2
f 11/17/23 12/19/22 70/80/203 69/79/204
s 17
f 12/19/205 10/16/206 68/77/207 70/80/208
s 15
f 68/77/198 67/78/197 71/82/209 72/81/210
s 16
f 67/78/202 69/79/201 73/83/211 71/82/212
s 2
f 69/79/204 70/80/203 74/84/213 73/83/214
s 17
f 70/80/208 68/77/207 72/81/215 74/84/216
s 15
f 72/81/210 71/82/209 75/86/217 76/85/218
s 16
f 71/82/212 73/83/211 77/87/219 75/86/220
s 2
f 73/83/214 74/84/213 78/88/221 77/87/222
s 17
f 74/84/216 72/81/215 76/85/223 78/88/224
s 2
f 1/1/24 11/17/23 80/90/225 79/89/226
s 18
f 11/17/227 9/15/228 81/91/229 80/90/230
s 19
f 9/15/231 3/3/232 82/92/233 81/91/234
s 4
f 3/3/31 1/1/30 79/89/235 82/92/236
s 2
f 79/89/226 80/90/225 84/94/237 83/93/238
s 18
f 80/90/230 81/91/229 85/95/239 84/94/240
s 19
f 81/91/234 82/92/233 86/96/241 85/95/242
s 4
f 82/92/236 79/89/235 83/93/243 86/96/244
s 2
f 83/93/238 84/94/237 88/98/245 87/97/246
s 18
f 84/94/240 85/95/239 89/99/247 88/98/248
s 19
f 85/95/242 86/96/241 90/100/249 89/99/250
s 4
f 86/96/244 83/93/243 87/97/251 90/100/252
s off
f 26/36/253 23/33/254 91/102/255 92/101/256
f 23/33/257 27/37/258 93/103/259 91/102/260
f 27/37/261 30/40/262 94/104/263 93/103/264
f 30/40/265 26/36/266 92/101/267 94/104/268
f 92/101/269 91/102/270 95/106/271 96/105/272
f 91/102/273 93/103/274 97/107/275 95/106/276
f 93/103/277 94/104/278 98/108/279 97/107/280
f 94/104/281 92/101/282 96/105/283 98/108/284
s 7
f 96/105/285 95/106/286 99/110/94 100/109/93
f 95/106/287 97/107/288 101/111/95 99/110/94
f 97/107/288 98/108/289 102/112/96 101/111/95
s off
f 98/108/290 96/105/291 100/109/292 102/112/293
s 20
f 2/2/294 8/11/295 103/114/296 104/113/297
f 8/11/295 6/12/298 105/115/299 103/114/296
f 6/12/298 4/4/300 106/116/301 105/115/299
f 4/4/300 2/2/294 104/113/297 106/116/301
s 21
f 104/113/302 103/114/303 107/118/304 108/117/305
s 22
f 103/114/306 105/115/307 109/119/308 107/118/309
s 23
f 105/115/310 106/116/311 110/120/312 109/119/313
s 24
f 106/116/314 104/113/315 108/117/316 110/120/317
s 21
f 108/117/305 107/118/304 111/122/318 112/121/319
s 22
f 107/118/309 109/119/308 113/123/320 111/122/321
s 23
f 109/119/313 110/120/312 114/124/322 113/123/323
s 24
f 110/120/317 108/117/316 112/121/324 114/124/325
s 21
f 112/121/319 111/122/318 115/126/326 116/125/327
s off
f 111/122/328 113/123/329 117/127/330 115/126/331
s 23
f 113/123/323 114/124/322 118/128/332 117/127/333
s 3
f 114/124/334 112/121/335 116/125/25 118/128/28
s 25
f 119/129/336 122/132/337 121/131/338 120/130/339
s 26
f 123/133/340 126/136/341 125/135/342 124/134/343
s 27
f 124/134/344 125/135/345 128/138/346 127/137/347
s 28
f 127/137/348 128/138/349 130/140/350 129/139/351
s 29
f 129/139/352 130/140/353 126/136/354 123/133/355
s 26
f 126/136/341 132/142/356 131/141/357 125/135/342
s 27
f 125/135/345 131/141/358 133/143/359 128/138/346
s 28
f 128/138/349 133/143/360 134/144/361 130/140/350
s 29
f 130/140/353 134/144/362 132/142/363 126/136/354
s 26
f 132/142/356 119/129/364 120/130/365 131/141/357
s off
f 131/141/366 120/130/367 121/131/368 133/143/369
s 28
f 133/143/360 121/131/370 122/132/371 134/144/361
s 25
f 134/144/372 122/132/337 119/129/336 132/142/373
s 30
f 137/147/374 136/146/375 135/145/376 31/41/377 32/42/378 33/43/379 34/44/380 35/45/381 36/46/382 140/150/383 139/149/384 138/148/385
f 36/46/382 37/47/386 141/151/387 140/150/383
f 37/47/386 38/48/388 142/152/389 141/151/387
f 38/48/388 31/41/377 135/145/376 142/152/389
s 31
f 151/161/390 152/162/391 153/163/392 154/164/393
s off
f 140/150/394 141/151/395 149/159/396 148/158/397
f 141/151/398 142/152/399 150/160/400 149/159/401
f 142/152/402 135/145/403 143/153/404 150/160/405
f 137/147/406 138/148/407 152/162/408 151/161/409
f 155/165/410 156/166/411 157/167/412 158/168/413
f 146/156/414 145/155/415 154/164/416 153/163/417
s 31
f 145/155/418 137/147/419 151/161/390 154/164/393
s off
f 138/148/420 146/156/421 156/166/422 155/165/423
f 146/156/424 153/163/425 157/167/426 156/166/427
f 153/163/428 152/162/429 158/168/430 157/167/431
f 152/162/432 138/148/433 155/165/434 158/168/435
f 159/169/436 178/170/437 177/171/438 176/172/439 175/173/440 174/174/441 173/175/442 172/176/443 171/177/444 170/178/445 169/179/446 168/180/447 167/181/448 166/182/449 165/183/450 164/184/451 163/185/452 162/186/453 161/187/454 160/188/455
s 32
f 159/189/456 160/190/457 179/191/458
f 160/190/457 161/192/459 179/191/458
f 161/192/459 162/193/460 179/191/458
f 162/193/460 163/194/461 179/191/458
f 163/194/461 164/195/462 179/191/458
f 164/195/462 165/196/463 179/191/458
f 165/196/463 166/197/464 179/191/458
f 166/197/464 167/198/465 179/191/458
f 167/198/465 168/199/466 179/191/458
f 168/199/466 169/200/467 179/191/458
f 169/200/467 170/201/468 179/191/458
f 170/201/468 171/202/469 179/191/458
f 171/202/469 172/203/470 179/191/458
f 172/203/470 173/204/471 179/191/458
f 173/204/471 174/205/472 179/191/458
f 174/205/472 175/206/473 179/191/458
f 175/206/473 176/207/474 180/208/475 193/209/476 182/210/477 179/191/458
f 182/210/477 183/211/478 179/191/458
f 177/212/479 178/213/480 179/191/458 183/211/478 181/214/481
f 178/213/480 159/215/456 179/191/458
f 176/207/474 177/212/479 181/214/481 194/216/482 180/208/475
s off
f 184/217/483 185/218/484 186/219/485 187/220/486
f 180/208/487 194/216/488 195/221/489 185/218/490 184/217/491
f 188/222/492 191/223/493 190/224/494 189/225/495
f 192/226/496 188/222/497 189/225/498 204/227/499 203/228/500
f 195/221/501 196/229/502 186/219/503 185/218/504
f 196/229/505 197/230/506 187/220/507 186/219/508
f 197/230/509 193/209/510 180/208/511 184/217/512 187/220/513
f 198/231/514 201/232/515 200/233/516 199/234/517
f 202/235/518 198/231/519 199/234/520 195/236/521 194/237/522
f 195/236/523 199/234/524 200/233/525 196/238/526
f 196/238/527 200/233/528 201/232/529 197/239/530
f 197/239/531 201/232/532 198/231/533 202/235/534 193/240/535
f 205/241/536 204/227/537 189/225/538 190/224/539
f 206/242/540 205/241/541 190/224/542 191/223/543
f 207/243/544 206/242/545 191/223/546 188/222/547 192/226/548
f 192/244/549 203/245/550 204/246/551 209/247/552 208/248/553
f 205/249/554 210/250/555 209/247/556 204/246/557
f 206/251/558 211/252/559 210/250/560 205/249/561
f 207/253/562 192/244/563 208/248/564 211/252/565 206/251/566

# usemtl None
